<svg version="1.1" xmlns="http://www.w3.org/2000/svg" width="220px" height="220px" viewBox="0 0 220 220" preserveAspectRatio="xMinYMin meet" xmlns:xlink="http://www.w3.org/1999/xlink" xmlns:svgjs="http://svgjs.com/svgjs"><rect width="100%" height="100%" fill="#ffffff" cx="0" cy="0"/><path d="M8,8l7,0 0,7 -7,0 0,-7z M15,8l7,0 0,7 -7,0 0,-7z M22,8l7,0 0,7 -7,0 0,-7z M29,8l7,0 0,7 -7,0 0,-7z M36,8l7,0 0,7 -7,0 0,-7z M43,8l7,0 0,7 -7,0 0,-7z M50,8l7,0 0,7 -7,0 0,-7z M85,8l7,0 0,7 -7,0 0,-7z M92,8l7,0 0,7 -7,0 0,-7z M106,8l7,0 0,7 -7,0 0,-7z M120,8l7,0 0,7 -7,0 0,-7z M127,8l7,0 0,7 -7,0 0,-7z M134,8l7,0 0,7 -7,0 0,-7z M141,8l7,0 0,7 -7,0 0,-7z M148,8l7,0 0,7 -7,0 0,-7z M162,8l7,0 0,7 -7,0 0,-7z M169,8l7,0 0,7 -7,0 0,-7z M176,8l7,0 0,7 -7,0 0,-7z M183,8l7,0 0,7 -7,0 0,-7z M190,8l7,0 0,7 -7,0 0,-7z M197,8l7,0 0,7 -7,0 0,-7z M204,8l7,0 0,7 -7,0 0,-7z M8,15l7,0 0,7 -7,0 0,-7z M50,15l7,0 0,7 -7,0 0,-7z M71,15l7,0 0,7 -7,0 0,-7z M78,15l7,0 0,7 -7,0 0,-7z M99,15l7,0 0,7 -7,0 0,-7z M106,15l7,0 0,7 -7,0 0,-7z M113,15l7,0 0,7 -7,0 0,-7z M127,15l7,0 0,7 -7,0 0,-7z M134,15l7,0 0,7 -7,0 0,-7z M148,15l7,0 0,7 -7,0 0,-7z M162,15l7,0 0,7 -7,0 0,-7z M204,15l7,0 0,7 -7,0 0,-7z M8,22l7,0 0,7 -7,0 0,-7z M22,22l7,0 0,7 -7,0 0,-7z M29,22l7,0 0,7 -7,0 0,-7z M36,22l7,0 0,7 -7,0 0,-7z M50,22l7,0 0,7 -7,0 0,-7z M71,22l7,0 0,7 -7,0 0,-7z M78,22l7,0 0,7 -7,0 0,-7z M85,22l7,0 0,7 -7,0 0,-7z M92,22l7,0 0,7 -7,0 0,-7z M99,22l7,0 0,7 -7,0 0,-7z M106,22l7,0 0,7 -7,0 0,-7z M113,22l7,0 0,7 -7,0 0,-7z M127,22l7,0 0,7 -7,0 0,-7z M162,22l7,0 0,7 -7,0 0,-7z M176,22l7,0 0,7 -7,0 0,-7z M183,22l7,0 0,7 -7,0 0,-7z M190,22l7,0 0,7 -7,0 0,-7z M204,22l7,0 0,7 -7,0 0,-7z M8,29l7,0 0,7 -7,0 0,-7z M22,29l7,0 0,7 -7,0 0,-7z M29,29l7,0 0,7 -7,0 0,-7z M36,29l7,0 0,7 -7,0 0,-7z M50,29l7,0 0,7 -7,0 0,-7z M64,29l7,0 0,7 -7,0 0,-7z M85,29l7,0 0,7 -7,0 0,-7z M120,29l7,0 0,7 -7,0 0,-7z M127,29l7,0 0,7 -7,0 0,-7z M134,29l7,0 0,7 -7,0 0,-7z M162,29l7,0 0,7 -7,0 0,-7z M176,29l7,0 0,7 -7,0 0,-7z M183,29l7,0 0,7 -7,0 0,-7z M190,29l7,0 0,7 -7,0 0,-7z M204,29l7,0 0,7 -7,0 0,-7z M8,36l7,0 0,7 -7,0 0,-7z M22,36l7,0 0,7 -7,0 0,-7z M29,36l7,0 0,7 -7,0 0,-7z M36,36l7,0 0,7 -7,0 0,-7z M50,36l7,0 0,7 -7,0 0,-7z M71,36l7,0 0,7 -7,0 0,-7z M78,36l7,0 0,7 -7,0 0,-7z M92,36l7,0 0,7 -7,0 0,-7z M113,36l7,0 0,7 -7,0 0,-7z M120,36l7,0 0,7 -7,0 0,-7z M134,36l7,0 0,7 -7,0 0,-7z M162,36l7,0 0,7 -7,0 0,-7z M176,36l7,0 0,7 -7,0 0,-7z M183,36l7,0 0,7 -7,0 0,-7z M190,36l7,0 0,7 -7,0 0,-7z M204,36l7,0 0,7 -7,0 0,-7z M8,43l7,0 0,7 -7,0 0,-7z M50,43l7,0 0,7 -7,0 0,-7z M64,43l7,0 0,7 -7,0 0,-7z M71,43l7,0 0,7 -7,0 0,-7z M78,43l7,0 0,7 -7,0 0,-7z M92,43l7,0 0,7 -7,0 0,-7z M99,43l7,0 0,7 -7,0 0,-7z M106,43l7,0 0,7 -7,0 0,-7z M113,43l7,0 0,7 -7,0 0,-7z M127,43l7,0 0,7 -7,0 0,-7z M134,43l7,0 0,7 -7,0 0,-7z M162,43l7,0 0,7 -7,0 0,-7z M204,43l7,0 0,7 -7,0 0,-7z M8,50l7,0 0,7 -7,0 0,-7z M15,50l7,0 0,7 -7,0 0,-7z M22,50l7,0 0,7 -7,0 0,-7z M29,50l7,0 0,7 -7,0 0,-7z M36,50l7,0 0,7 -7,0 0,-7z M43,50l7,0 0,7 -7,0 0,-7z M50,50l7,0 0,7 -7,0 0,-7z M64,50l7,0 0,7 -7,0 0,-7z M78,50l7,0 0,7 -7,0 0,-7z M92,50l7,0 0,7 -7,0 0,-7z M106,50l7,0 0,7 -7,0 0,-7z M120,50l7,0 0,7 -7,0 0,-7z M134,50l7,0 0,7 -7,0 0,-7z M148,50l7,0 0,7 -7,0 0,-7z M162,50l7,0 0,7 -7,0 0,-7z M169,50l7,0 0,7 -7,0 0,-7z M176,50l7,0 0,7 -7,0 0,-7z M183,50l7,0 0,7 -7,0 0,-7z M190,50l7,0 0,7 -7,0 0,-7z M197,50l7,0 0,7 -7,0 0,-7z M204,50l7,0 0,7 -7,0 0,-7z M64,57l7,0 0,7 -7,0 0,-7z M78,57l7,0 0,7 -7,0 0,-7z M106,57l7,0 0,7 -7,0 0,-7z M120,57l7,0 0,7 -7,0 0,-7z M127,57l7,0 0,7 -7,0 0,-7z M141,57l7,0 0,7 -7,0 0,-7z M148,57l7,0 0,7 -7,0 0,-7z M15,64l7,0 0,7 -7,0 0,-7z M22,64l7,0 0,7 -7,0 0,-7z M50,64l7,0 0,7 -7,0 0,-7z M71,64l7,0 0,7 -7,0 0,-7z M78,64l7,0 0,7 -7,0 0,-7z M106,64l7,0 0,7 -7,0 0,-7z M127,64l7,0 0,7 -7,0 0,-7z M148,64l7,0 0,7 -7,0 0,-7z M162,64l7,0 0,7 -7,0 0,-7z M169,64l7,0 0,7 -7,0 0,-7z M183,64l7,0 0,7 -7,0 0,-7z M15,71l7,0 0,7 -7,0 0,-7z M57,71l7,0 0,7 -7,0 0,-7z M64,71l7,0 0,7 -7,0 0,-7z M92,71l7,0 0,7 -7,0 0,-7z M106,71l7,0 0,7 -7,0 0,-7z M120,71l7,0 0,7 -7,0 0,-7z M127,71l7,0 0,7 -7,0 0,-7z M141,71l7,0 0,7 -7,0 0,-7z M148,71l7,0 0,7 -7,0 0,-7z M162,71l7,0 0,7 -7,0 0,-7z M169,71l7,0 0,7 -7,0 0,-7z M190,71l7,0 0,7 -7,0 0,-7z M204,71l7,0 0,7 -7,0 0,-7z M22,78l7,0 0,7 -7,0 0,-7z M50,78l7,0 0,7 -7,0 0,-7z M57,78l7,0 0,7 -7,0 0,-7z M64,78l7,0 0,7 -7,0 0,-7z M78,78l7,0 0,7 -7,0 0,-7z M92,78l7,0 0,7 -7,0 0,-7z M113,78l7,0 0,7 -7,0 0,-7z M127,78l7,0 0,7 -7,0 0,-7z M134,78l7,0 0,7 -7,0 0,-7z M141,78l7,0 0,7 -7,0 0,-7z M148,78l7,0 0,7 -7,0 0,-7z M176,78l7,0 0,7 -7,0 0,-7z M190,78l7,0 0,7 -7,0 0,-7z M204,78l7,0 0,7 -7,0 0,-7z M8,85l7,0 0,7 -7,0 0,-7z M22,85l7,0 0,7 -7,0 0,-7z M29,85l7,0 0,7 -7,0 0,-7z M64,85l7,0 0,7 -7,0 0,-7z M85,85l7,0 0,7 -7,0 0,-7z M134,85l7,0 0,7 -7,0 0,-7z M141,85l7,0 0,7 -7,0 0,-7z M148,85l7,0 0,7 -7,0 0,-7z M162,85l7,0 0,7 -7,0 0,-7z M169,85l7,0 0,7 -7,0 0,-7z M183,85l7,0 0,7 -7,0 0,-7z M197,85l7,0 0,7 -7,0 0,-7z M204,85l7,0 0,7 -7,0 0,-7z M8,92l7,0 0,7 -7,0 0,-7z M15,92l7,0 0,7 -7,0 0,-7z M22,92l7,0 0,7 -7,0 0,-7z M29,92l7,0 0,7 -7,0 0,-7z M36,92l7,0 0,7 -7,0 0,-7z M50,92l7,0 0,7 -7,0 0,-7z M57,92l7,0 0,7 -7,0 0,-7z M64,92l7,0 0,7 -7,0 0,-7z M71,92l7,0 0,7 -7,0 0,-7z M99,92l7,0 0,7 -7,0 0,-7z M113,92l7,0 0,7 -7,0 0,-7z M148,92l7,0 0,7 -7,0 0,-7z M155,92l7,0 0,7 -7,0 0,-7z M162,92l7,0 0,7 -7,0 0,-7z M169,92l7,0 0,7 -7,0 0,-7z M183,92l7,0 0,7 -7,0 0,-7z M197,92l7,0 0,7 -7,0 0,-7z M204,92l7,0 0,7 -7,0 0,-7z M71,99l7,0 0,7 -7,0 0,-7z M78,99l7,0 0,7 -7,0 0,-7z M85,99l7,0 0,7 -7,0 0,-7z M99,99l7,0 0,7 -7,0 0,-7z M113,99l7,0 0,7 -7,0 0,-7z M134,99l7,0 0,7 -7,0 0,-7z M141,99l7,0 0,7 -7,0 0,-7z M162,99l7,0 0,7 -7,0 0,-7z M169,99l7,0 0,7 -7,0 0,-7z M204,99l7,0 0,7 -7,0 0,-7z M8,106l7,0 0,7 -7,0 0,-7z M15,106l7,0 0,7 -7,0 0,-7z M22,106l7,0 0,7 -7,0 0,-7z M29,106l7,0 0,7 -7,0 0,-7z M43,106l7,0 0,7 -7,0 0,-7z M50,106l7,0 0,7 -7,0 0,-7z M57,106l7,0 0,7 -7,0 0,-7z M92,106l7,0 0,7 -7,0 0,-7z M113,106l7,0 0,7 -7,0 0,-7z M120,106l7,0 0,7 -7,0 0,-7z M127,106l7,0 0,7 -7,0 0,-7z M134,106l7,0 0,7 -7,0 0,-7z M141,106l7,0 0,7 -7,0 0,-7z M162,106l7,0 0,7 -7,0 0,-7z M176,106l7,0 0,7 -7,0 0,-7z M190,106l7,0 0,7 -7,0 0,-7z M204,106l7,0 0,7 -7,0 0,-7z M8,113l7,0 0,7 -7,0 0,-7z M22,113l7,0 0,7 -7,0 0,-7z M36,113l7,0 0,7 -7,0 0,-7z M85,113l7,0 0,7 -7,0 0,-7z M106,113l7,0 0,7 -7,0 0,-7z M120,113l7,0 0,7 -7,0 0,-7z M134,113l7,0 0,7 -7,0 0,-7z M176,113l7,0 0,7 -7,0 0,-7z M183,113l7,0 0,7 -7,0 0,-7z M204,113l7,0 0,7 -7,0 0,-7z M8,120l7,0 0,7 -7,0 0,-7z M50,120l7,0 0,7 -7,0 0,-7z M57,120l7,0 0,7 -7,0 0,-7z M64,120l7,0 0,7 -7,0 0,-7z M78,120l7,0 0,7 -7,0 0,-7z M85,120l7,0 0,7 -7,0 0,-7z M92,120l7,0 0,7 -7,0 0,-7z M99,120l7,0 0,7 -7,0 0,-7z M106,120l7,0 0,7 -7,0 0,-7z M113,120l7,0 0,7 -7,0 0,-7z M120,120l7,0 0,7 -7,0 0,-7z M127,120l7,0 0,7 -7,0 0,-7z M134,120l7,0 0,7 -7,0 0,-7z M148,120l7,0 0,7 -7,0 0,-7z M162,120l7,0 0,7 -7,0 0,-7z M169,120l7,0 0,7 -7,0 0,-7z M183,120l7,0 0,7 -7,0 0,-7z M22,127l7,0 0,7 -7,0 0,-7z M36,127l7,0 0,7 -7,0 0,-7z M57,127l7,0 0,7 -7,0 0,-7z M64,127l7,0 0,7 -7,0 0,-7z M78,127l7,0 0,7 -7,0 0,-7z M99,127l7,0 0,7 -7,0 0,-7z M106,127l7,0 0,7 -7,0 0,-7z M120,127l7,0 0,7 -7,0 0,-7z M134,127l7,0 0,7 -7,0 0,-7z M141,127l7,0 0,7 -7,0 0,-7z M148,127l7,0 0,7 -7,0 0,-7z M162,127l7,0 0,7 -7,0 0,-7z M169,127l7,0 0,7 -7,0 0,-7z M183,127l7,0 0,7 -7,0 0,-7z M190,127l7,0 0,7 -7,0 0,-7z M204,127l7,0 0,7 -7,0 0,-7z M8,134l7,0 0,7 -7,0 0,-7z M15,134l7,0 0,7 -7,0 0,-7z M22,134l7,0 0,7 -7,0 0,-7z M36,134l7,0 0,7 -7,0 0,-7z M50,134l7,0 0,7 -7,0 0,-7z M57,134l7,0 0,7 -7,0 0,-7z M71,134l7,0 0,7 -7,0 0,-7z M78,134l7,0 0,7 -7,0 0,-7z M85,134l7,0 0,7 -7,0 0,-7z M92,134l7,0 0,7 -7,0 0,-7z M106,134l7,0 0,7 -7,0 0,-7z M120,134l7,0 0,7 -7,0 0,-7z M127,134l7,0 0,7 -7,0 0,-7z M141,134l7,0 0,7 -7,0 0,-7z M204,134l7,0 0,7 -7,0 0,-7z M22,141l7,0 0,7 -7,0 0,-7z M36,141l7,0 0,7 -7,0 0,-7z M64,141l7,0 0,7 -7,0 0,-7z M78,141l7,0 0,7 -7,0 0,-7z M106,141l7,0 0,7 -7,0 0,-7z M113,141l7,0 0,7 -7,0 0,-7z M120,141l7,0 0,7 -7,0 0,-7z M155,141l7,0 0,7 -7,0 0,-7z M169,141l7,0 0,7 -7,0 0,-7z M197,141l7,0 0,7 -7,0 0,-7z M204,141l7,0 0,7 -7,0 0,-7z M8,148l7,0 0,7 -7,0 0,-7z M15,148l7,0 0,7 -7,0 0,-7z M22,148l7,0 0,7 -7,0 0,-7z M36,148l7,0 0,7 -7,0 0,-7z M43,148l7,0 0,7 -7,0 0,-7z M50,148l7,0 0,7 -7,0 0,-7z M57,148l7,0 0,7 -7,0 0,-7z M64,148l7,0 0,7 -7,0 0,-7z M71,148l7,0 0,7 -7,0 0,-7z M92,148l7,0 0,7 -7,0 0,-7z M99,148l7,0 0,7 -7,0 0,-7z M106,148l7,0 0,7 -7,0 0,-7z M120,148l7,0 0,7 -7,0 0,-7z M148,148l7,0 0,7 -7,0 0,-7z M155,148l7,0 0,7 -7,0 0,-7z M162,148l7,0 0,7 -7,0 0,-7z M169,148l7,0 0,7 -7,0 0,-7z M176,148l7,0 0,7 -7,0 0,-7z M183,148l7,0 0,7 -7,0 0,-7z M197,148l7,0 0,7 -7,0 0,-7z M64,155l7,0 0,7 -7,0 0,-7z M78,155l7,0 0,7 -7,0 0,-7z M85,155l7,0 0,7 -7,0 0,-7z M99,155l7,0 0,7 -7,0 0,-7z M113,155l7,0 0,7 -7,0 0,-7z M120,155l7,0 0,7 -7,0 0,-7z M127,155l7,0 0,7 -7,0 0,-7z M148,155l7,0 0,7 -7,0 0,-7z M176,155l7,0 0,7 -7,0 0,-7z M183,155l7,0 0,7 -7,0 0,-7z M190,155l7,0 0,7 -7,0 0,-7z M204,155l7,0 0,7 -7,0 0,-7z M8,162l7,0 0,7 -7,0 0,-7z M15,162l7,0 0,7 -7,0 0,-7z M22,162l7,0 0,7 -7,0 0,-7z M29,162l7,0 0,7 -7,0 0,-7z M36,162l7,0 0,7 -7,0 0,-7z M43,162l7,0 0,7 -7,0 0,-7z M50,162l7,0 0,7 -7,0 0,-7z M71,162l7,0 0,7 -7,0 0,-7z M78,162l7,0 0,7 -7,0 0,-7z M99,162l7,0 0,7 -7,0 0,-7z M113,162l7,0 0,7 -7,0 0,-7z M148,162l7,0 0,7 -7,0 0,-7z M162,162l7,0 0,7 -7,0 0,-7z M176,162l7,0 0,7 -7,0 0,-7z M183,162l7,0 0,7 -7,0 0,-7z M190,162l7,0 0,7 -7,0 0,-7z M197,162l7,0 0,7 -7,0 0,-7z M204,162l7,0 0,7 -7,0 0,-7z M8,169l7,0 0,7 -7,0 0,-7z M50,169l7,0 0,7 -7,0 0,-7z M71,169l7,0 0,7 -7,0 0,-7z M85,169l7,0 0,7 -7,0 0,-7z M99,169l7,0 0,7 -7,0 0,-7z M120,169l7,0 0,7 -7,0 0,-7z M127,169l7,0 0,7 -7,0 0,-7z M141,169l7,0 0,7 -7,0 0,-7z M148,169l7,0 0,7 -7,0 0,-7z M176,169l7,0 0,7 -7,0 0,-7z M183,169l7,0 0,7 -7,0 0,-7z M204,169l7,0 0,7 -7,0 0,-7z M8,176l7,0 0,7 -7,0 0,-7z M22,176l7,0 0,7 -7,0 0,-7z M29,176l7,0 0,7 -7,0 0,-7z M36,176l7,0 0,7 -7,0 0,-7z M50,176l7,0 0,7 -7,0 0,-7z M71,176l7,0 0,7 -7,0 0,-7z M78,176l7,0 0,7 -7,0 0,-7z M85,176l7,0 0,7 -7,0 0,-7z M113,176l7,0 0,7 -7,0 0,-7z M127,176l7,0 0,7 -7,0 0,-7z M141,176l7,0 0,7 -7,0 0,-7z M148,176l7,0 0,7 -7,0 0,-7z M155,176l7,0 0,7 -7,0 0,-7z M162,176l7,0 0,7 -7,0 0,-7z M169,176l7,0 0,7 -7,0 0,-7z M176,176l7,0 0,7 -7,0 0,-7z M197,176l7,0 0,7 -7,0 0,-7z M204,176l7,0 0,7 -7,0 0,-7z M8,183l7,0 0,7 -7,0 0,-7z M22,183l7,0 0,7 -7,0 0,-7z M29,183l7,0 0,7 -7,0 0,-7z M36,183l7,0 0,7 -7,0 0,-7z M50,183l7,0 0,7 -7,0 0,-7z M78,183l7,0 0,7 -7,0 0,-7z M85,183l7,0 0,7 -7,0 0,-7z M92,183l7,0 0,7 -7,0 0,-7z M99,183l7,0 0,7 -7,0 0,-7z M106,183l7,0 0,7 -7,0 0,-7z M127,183l7,0 0,7 -7,0 0,-7z M155,183l7,0 0,7 -7,0 0,-7z M176,183l7,0 0,7 -7,0 0,-7z M183,183l7,0 0,7 -7,0 0,-7z M190,183l7,0 0,7 -7,0 0,-7z M197,183l7,0 0,7 -7,0 0,-7z M8,190l7,0 0,7 -7,0 0,-7z M22,190l7,0 0,7 -7,0 0,-7z M29,190l7,0 0,7 -7,0 0,-7z M36,190l7,0 0,7 -7,0 0,-7z M50,190l7,0 0,7 -7,0 0,-7z M64,190l7,0 0,7 -7,0 0,-7z M71,190l7,0 0,7 -7,0 0,-7z M92,190l7,0 0,7 -7,0 0,-7z M99,190l7,0 0,7 -7,0 0,-7z M113,190l7,0 0,7 -7,0 0,-7z M127,190l7,0 0,7 -7,0 0,-7z M134,190l7,0 0,7 -7,0 0,-7z M155,190l7,0 0,7 -7,0 0,-7z M176,190l7,0 0,7 -7,0 0,-7z M197,190l7,0 0,7 -7,0 0,-7z M204,190l7,0 0,7 -7,0 0,-7z M8,197l7,0 0,7 -7,0 0,-7z M50,197l7,0 0,7 -7,0 0,-7z M64,197l7,0 0,7 -7,0 0,-7z M71,197l7,0 0,7 -7,0 0,-7z M78,197l7,0 0,7 -7,0 0,-7z M92,197l7,0 0,7 -7,0 0,-7z M106,197l7,0 0,7 -7,0 0,-7z M148,197l7,0 0,7 -7,0 0,-7z M155,197l7,0 0,7 -7,0 0,-7z M176,197l7,0 0,7 -7,0 0,-7z M183,197l7,0 0,7 -7,0 0,-7z M8,204l7,0 0,7 -7,0 0,-7z M15,204l7,0 0,7 -7,0 0,-7z M22,204l7,0 0,7 -7,0 0,-7z M29,204l7,0 0,7 -7,0 0,-7z M36,204l7,0 0,7 -7,0 0,-7z M43,204l7,0 0,7 -7,0 0,-7z M50,204l7,0 0,7 -7,0 0,-7z M78,204l7,0 0,7 -7,0 0,-7z M85,204l7,0 0,7 -7,0 0,-7z M106,204l7,0 0,7 -7,0 0,-7z M113,204l7,0 0,7 -7,0 0,-7z M148,204l7,0 0,7 -7,0 0,-7z M155,204l7,0 0,7 -7,0 0,-7z M162,204l7,0 0,7 -7,0 0,-7z M176,204l7,0 0,7 -7,0 0,-7z M204,204l7,0 0,7 -7,0 0,-7z " stroke="transparent" fill="#0c0c0d"/></svg>