<svg width="232" height="268" viewBox="0 0 232 268" fill="none" xmlns="http://www.w3.org/2000/svg">
    <style>
        path { fill: #000; }
        @media (forced-colors: active) {
            svg { background: Canvas; }
            path { fill: CanvasText; }
        }
    </style>
    <path fill="fillColor" d="M182.949 159.127C177.867 159.127 170.354 159.127 159.086 159.127C154.667 153.143 148.259 144.943 148.259 144.943C137.874 154.029 121.524 162.451 101.859 162.451C70.0419 162.451 54.1333 138.959 54.1333 119.899C54.1333 92.6393 76.6705 77.5688 92.1371 70.6984C90.3695 68.0389 75.1238 53.4116 75.1238 35.2384C74.9029 19.2814 89.4857 0 114.453 0C136.549 0 155.771 15.0705 155.771 37.6763C155.771 59.1739 139.2 70.4768 129.699 76.6823C136.77 85.9905 143.619 94.6339 150.027 102.834C150.027 102.834 158.423 80.0067 158.423 78.4553H184.053C182.728 91.5312 177.646 110.591 166.377 124.553C174.331 134.97 182.949 145.829 192.891 159.127C192.891 159.127 192.891 159.127 182.949 159.127ZM106.72 91.5312C102.301 94.4123 98.3238 97.0718 92.8 101.504C86.1714 107.045 83.299 113.472 83.299 119.234C83.299 129.207 91.4743 137.629 101.417 137.629C116 137.629 125.501 129.207 132.13 124.775C121.524 110.813 110.918 97.0718 106.72 91.5312ZM115.558 23.4923C108.046 23.4923 101.638 29.6978 101.638 35.6816C101.638 43.2169 108.046 50.0873 114.453 58.0658C121.966 52.3035 130.141 44.9899 130.141 37.233C129.92 28.8113 122.187 23.4923 115.558 23.4923Z"/>
    <path fill="fillColor" d="M60.0995 228.274C64.9604 228.274 68.4957 232.041 68.4957 236.917C68.4957 240.463 67.17 243.344 63.8557 244.896C67.3909 245.782 68.0538 250.215 68.2747 252.653C68.2747 254.426 68.4957 257.972 69.3795 259.523H62.7509C61.8671 257.528 62.0881 254.426 61.6462 251.988C61.2042 249.107 60.3204 247.334 56.7852 247.334H50.1566V259.523H43.5281V228.274H60.0995ZM57.669 242.458C60.5414 242.458 62.0881 240.906 62.0881 238.025C62.0881 235.144 60.5414 233.593 57.669 233.593H50.3776V242.458H57.669Z"/>
    <path fill="fillColor" d="M69.3788 248.442C69.3788 241.793 74.0188 236.474 80.8683 236.474C87.9388 236.474 91.695 242.236 91.695 248.885C91.695 249.328 91.695 249.55 91.695 249.993H75.3445C75.5655 253.539 77.3331 255.755 81.0893 255.755C83.0779 255.755 85.5083 254.647 86.1712 252.874H91.4741C89.7064 257.972 86.3922 260.631 81.0893 260.631C73.7979 260.409 69.3788 255.312 69.3788 248.442ZM85.9502 245.782C85.5083 242.901 83.9617 240.906 80.8683 240.906C77.996 240.906 75.7864 242.901 75.5655 245.782H85.9502Z"/>
    <path fill="fillColor" d="M94.1255 261.074H100.091C100.754 263.291 102.522 264.177 104.952 264.177C108.266 264.177 109.813 261.739 109.813 258.636V255.534C108.266 258.193 105.615 259.08 103.185 259.08C96.335 259.08 93.6836 253.761 93.6836 247.555C93.6836 241.793 96.9979 236.252 103.185 236.252C106.72 236.252 108.487 237.804 109.813 239.798V236.696H115.558V258.193C115.558 265.285 110.697 267.945 104.289 267.945C99.4284 268.388 94.3464 266.172 94.1255 261.074ZM109.592 247.998C109.592 244.452 108.487 241.128 104.289 241.128C100.754 241.128 99.2074 244.452 99.2074 247.555C99.2074 250.88 100.754 254.426 104.51 254.426C108.045 254.426 109.592 251.101 109.592 247.998Z"/>
    <path fill="fillColor" d="M118.431 228.274H124.396V233.371H118.431V228.274ZM118.431 236.917H124.396V259.745H118.431V236.917Z"/>
    <path fill="fillColor" d="M126.164 252.209H131.688C131.688 254.869 133.676 255.977 136.328 255.977C138.095 255.977 140.084 255.312 140.084 253.096C140.084 250.88 136.77 250.436 133.235 249.55C129.92 248.663 126.385 247.334 126.385 243.566C126.385 238.025 130.804 236.252 135.665 236.252C140.526 236.252 144.724 238.025 145.166 243.566H139.421C138.979 241.128 137.654 240.685 135.444 240.685C134.118 240.685 132.13 240.906 132.13 242.901C132.13 245.117 135.444 245.561 138.979 246.225C142.294 247.112 145.829 248.442 145.829 252.653C145.829 258.415 141.189 260.631 136.107 260.631C131.025 260.409 126.385 258.193 126.164 252.209Z"/>
    <path fill="fillColor" d="M149.363 254.647V241.128H146.491V236.917H149.363V230.047H155.329V236.917H159.527V241.128H155.329V252.653C155.329 254.647 155.992 255.09 157.76 255.09C158.422 255.09 159.085 255.09 159.527 254.869V259.745C158.422 259.966 157.318 259.966 156.213 259.966C152.457 259.966 149.363 259.08 149.363 254.647Z"/>
    <path fill="fillColor" d="M167.702 236.917V241.128C168.807 238.469 171.68 236.252 174.552 236.252C174.994 236.252 175.436 236.252 175.878 236.474V242.236C175.657 242.236 174.11 242.015 173.668 242.015C169.47 242.015 167.923 245.339 167.923 249.107V259.523H161.958V236.917H167.702Z"/>
    <path fill="fillColor" d="M178.972 267.501V262.404C179.855 262.404 180.96 262.626 181.844 262.626C183.612 262.626 184.716 261.518 184.716 259.745C184.716 259.301 184.716 258.858 184.495 258.415L176.983 237.139H183.391L188.252 252.653L192.892 237.139H199.078L190.019 262.404C188.694 266.172 186.705 267.501 182.507 267.501C181.402 267.723 179.855 267.501 178.972 267.501Z"/>
    <path fill="fillColor" d="M8.83809 195.916H0V190.154H24.3048V195.916H15.4667V221.403H8.83809V195.916Z"/>
    <path fill="fillColor" d="M32.701 190.154V201.9H32.9219C34.4686 199.684 36.4571 198.132 39.1086 198.132C45.0743 198.132 46.8419 201.678 46.8419 207.219V221.403H40.8762V208.327C40.8762 205.668 40.2133 203.008 37.12 203.008C33.3638 203.008 32.48 205.889 32.48 209.214V221.403H26.5143V190.154H32.701Z"/>
    <path fill="fillColor" d="M49.0519 210.1C49.0519 203.452 53.6919 198.133 60.5414 198.133C67.6119 198.133 71.3681 203.895 71.3681 210.544C71.3681 210.987 71.3681 211.208 71.3681 211.652H55.0176C55.2385 215.198 57.0062 217.414 60.7623 217.414C62.7509 217.414 65.1814 216.306 65.8442 214.533H71.1471C69.3795 219.63 66.0652 222.068 60.7623 222.068C53.4709 222.068 49.0519 216.971 49.0519 210.1ZM65.4023 207.662C64.9604 204.781 63.4138 202.787 60.3204 202.787C57.4481 202.787 55.2385 204.781 55.0176 207.662H65.4023Z"/>
    <path fill="fillColor" d="M70.2624 190.154H76.67L81.31 211.43L86.3919 190.154H92.7996L97.8815 211.652L102.742 190.154H109.15L101.196 221.403H94.7881L89.7062 200.127L84.8453 221.403H78.2167L70.2624 190.154Z"/>
    <path fill="fillColor" d="M106.499 210.1C106.499 203.452 111.139 198.133 117.989 198.133C125.059 198.133 128.816 203.895 128.816 210.544C128.816 210.987 128.816 211.208 128.816 211.652H112.465C112.686 215.198 114.454 217.414 118.21 217.414C120.199 217.414 122.629 216.306 123.292 214.533H128.595C126.827 219.63 123.513 222.068 118.21 222.068C110.698 222.068 106.499 216.971 106.499 210.1ZM122.85 207.662C122.408 204.781 120.861 202.787 117.768 202.787C114.896 202.787 112.686 204.781 112.465 207.662H122.85Z"/>
    <path fill="fillColor" d="M130.362 209.879C130.362 203.895 133.676 198.132 140.305 198.132C142.735 198.132 145.608 199.241 146.933 201.457V190.154H152.899V221.403H147.375V218.522C145.829 220.96 143.398 222.068 140.526 222.068C133.455 222.068 130.362 216.084 130.362 209.879ZM146.933 210.1C146.933 206.554 145.829 203.008 141.63 203.008C137.653 203.008 136.107 206.776 136.107 210.322C136.107 213.646 137.874 217.635 141.851 217.635C146.05 217.414 146.933 213.425 146.933 210.1Z"/>
    <path fill="fillColor" d="M154.224 209.879C154.224 203.895 157.539 198.132 164.167 198.132C166.598 198.132 169.47 199.241 170.796 201.457V190.154H176.761V221.403H171.238V218.522C169.691 220.96 167.261 222.068 164.388 222.068C157.318 222.068 154.224 216.084 154.224 209.879ZM171.017 210.1C171.017 206.554 169.912 203.008 165.714 203.008C161.737 203.008 160.19 206.776 160.19 210.322C160.19 213.646 161.958 217.635 165.935 217.635C169.912 217.414 171.017 213.425 171.017 210.1Z"/>
    <path fill="fillColor" d="M185.6 190.154V195.251H179.634V190.154H185.6ZM185.6 198.797V221.403H179.634V198.797H185.6Z"/>
    <path fill="fillColor" d="M194.217 198.797V201.9H194.438C195.984 199.462 198.194 198.133 201.066 198.133C207.032 198.133 208.8 201.679 208.8 207.219V221.403H202.834V208.327C202.834 205.668 202.171 203.008 199.078 203.008C195.321 203.008 194.438 205.889 194.438 209.214V221.403H188.472V198.797H194.217Z"/>
    <path fill="fillColor" d="M210.789 222.733H216.534C217.196 224.949 218.964 225.836 221.394 225.836C224.709 225.836 226.255 223.398 226.255 220.295V217.192C224.709 219.852 222.057 220.738 219.627 220.738C212.777 220.738 210.126 215.419 210.126 209.435C210.126 203.673 213.44 198.133 219.627 198.133C223.162 198.133 224.93 199.684 226.255 201.679V198.576H232V220.073C232 227.166 227.139 229.825 220.732 229.825C216.313 230.047 211.231 227.831 210.789 222.733ZM226.476 209.657C226.476 206.111 225.371 202.787 221.173 202.787C217.638 202.787 216.092 206.111 216.092 209.214C216.092 212.538 217.638 216.084 221.394 216.084C224.93 216.084 226.476 212.981 226.476 209.657Z"/>
</svg>